<?xml version="1.0" encoding="utf-8"?>
<svg viewBox="0 0 100 100" xmlns="http://www.w3.org/2000/svg">
  <rect x="3.338" y="3.339" width="94.076" height="92.928" style="fill: rgb(216, 216, 216); stroke: rgb(0, 0, 0);"/>
  <rect x="3.13" y="3.713" width="94.206" height="6.063" style="fill: rgb(40, 222, 46);"/>
  <rect x="3.13" y="9.543" width="93.972" height="86.045" style="fill: rgb(125, 100, 24); stroke: rgb(84, 204, 41);"/>
  <path d="M -17.856 83.695 Z" style="fill: none; stroke: rgb(84, 204, 41);"/>
  <path d="M 4.296 6.978 C 9.966 6.745 14.24 8.327 18.287 6.978 C 19.154 6.689 20.143 6.745 21.085 6.745 C 21.266 6.745 22.484 6.745 22.484 6.745 C 22.484 6.511 22.018 5.707 22.018 5.345 C 23.238 5.112 24.925 5.221 25.749 6.045 C 25.915 6.211 26.37 6.978 26.449 6.978 C 26.538 6.978 27.848 7.444 27.848 7.444 C 29.577 7.444 31.268 7.872 32.978 7.444 C 34.641 7.028 34.827 5.112 36.709 5.112 C 41.761 5.112 46.114 5.112 50.466 5.112 C 52.764 5.112 54.896 5.345 56.995 5.345 C 56.995 5.579 58.189 5.812 58.395 5.812 C 61.115 5.812 63.836 5.812 66.556 5.812 C 67.333 5.812 68.888 5.812 68.888 5.812 C 68.888 5.812 70.068 6.63 70.753 6.745 C 72.014 6.955 73.43 6.745 74.717 6.745 C 76.818 6.745 78.558 6.978 80.547 6.978 C 81.324 6.978 82.879 6.978 82.879 6.978 C 86.197 6.978 90.372 5.812 93.139 5.812" style="fill: none; stroke: rgb(84, 204, 41);"/>
  <path d="M -20.888 44.52 Z" style="stroke: black; fill: none;"/>
  <path d="M -7.596 17.005 Z" style="stroke: black; fill: none;"/>
</svg>