<?xml version="1.0" encoding="utf-8"?>
<svg viewBox="0 0 500 500" xmlns="http://www.w3.org/2000/svg">
  <ellipse cx="257.578" cy="257.578" rx="192.958" ry="192.375" style="fill: rgb(206, 158, 158);"/>
  <path d="M 120.584 306.547 C 120.584 353.833 372.42 365.898 372.42 307.712 L 120.584 306.547 Z" style="stroke: black; fill: rgb(245, 243, 243);"/>
  <path d="M 120.584 306.547 L 120.584 306.547 Z" style="stroke: black; fill: rgb(245, 243, 243);"/>
  <path d="M 140.405 195.785 Z" style="stroke: black; fill: none;"/>
  <path d="M 140.405 195.785 C 138.85 195.785 137.295 195.785 135.741 195.785 C 138.461 195.785 141.182 195.785 143.902 195.785 C 143.902 194.619 143.902 180.794 143.902 189.956 C 143.902 191.122 143.902 192.288 143.902 193.453 C 143.902 193.453 138.073 199.101 138.073 192.288 C 138.073 189.668 140.405 188.79 140.405 188.79 C 140.405 189.956 143.666 186.458 143.902 186.458 C 143.902 190.847 141.57 193.453 141.57 193.453 C 136.729 193.453 138.073 184.126 138.073 184.126 C 138.073 185.292 139.239 187.624 139.239 187.624 C 140.016 187.624 141.57 187.624 141.57 187.624" style="stroke: black; fill: none;"/>
  <path d="M -27.486 227.265 Z" style="stroke: black; fill: none;"/>
  <path d="M 309.461 199.283 C 309.461 207.358 305.964 205.113 305.964 205.113 C 295.108 205.113 310.627 196.951 310.627 196.951 C 310.627 198.894 310.627 200.838 310.627 202.781 C 309.726 203.682 303.632 203.947 303.632 203.947 C 303.632 202.781 302.502 196.951 305.964 196.951 C 305.964 196.951 309.228 196.951 309.461 196.951 Z" style="stroke: black; fill: none;"/>
</svg>